<svg width="150" height="150" viewBox="0 0 150 150" fill="none" xmlns="http://www.w3.org/2000/svg">
<circle cx="75" cy="75" r="72" stroke="#9F1012" stroke-width="6"/>
<mask id="path-2-inside-1_77_69" fill="white">
<path fill-rule="evenodd" clip-rule="evenodd" d="M99.7928 93.8863L76.8911 74.4446L99.6281 55.4971C101.44 54.0143 101.44 51.3781 99.6281 49.8953L75.573 29.6297C73.1016 27.6526 69.4769 29.3002 69.4769 32.5954V68.0189L53.9894 55.0028C46.2457 48.5772 42.2914 52.6962 50.3647 59.2866L67.8293 74.2798L50.3647 88.7787C42.9505 94.8749 46.4105 99.3234 53.9894 93.2272L69.4769 80.3759V116.953C69.4769 120.083 73.1016 121.731 75.573 119.754L99.6281 99.4881C101.44 98.1701 101.44 95.3691 99.7928 93.8863ZM75.2435 36.8792L94.191 52.6962L75.2435 68.3484V36.8792ZM75.2435 112.504V80.5407L94.191 96.6872L75.2435 112.504Z"/>
</mask>
<path d="M99.7928 93.8863L133.241 56.7216L132.703 56.2374L132.151 55.769L99.7928 93.8863ZM76.8911 74.4446L44.8819 36.0335L-0.785889 74.09L44.5326 112.562L76.8911 74.4446ZM99.6281 55.4971L67.9662 16.7992L67.7919 16.9419L67.6188 17.0861L99.6281 55.4971ZM99.6281 49.8953L67.4132 88.134L67.688 88.3656L67.9662 88.5931L99.6281 49.8953ZM75.573 29.6297L107.788 -8.60904L107.303 -9.01759L106.808 -9.41371L75.573 29.6297ZM69.4769 68.0189L37.3078 106.296L119.477 175.353V68.0189H69.4769ZM53.9894 55.0028L86.1586 16.7256L86.0386 16.6248L85.9181 16.5247L53.9894 55.0028ZM50.3647 59.2866L82.9337 21.349L82.4636 20.9454L81.9835 20.5535L50.3647 59.2866ZM67.8293 74.2798L99.7671 112.75L145.335 74.9201L100.398 36.3422L67.8293 74.2798ZM50.3647 88.7787L82.12 127.4L82.2114 127.325L82.3025 127.249L50.3647 88.7787ZM53.9894 93.2272L85.3274 132.188L85.6245 131.949L85.9181 131.705L53.9894 93.2272ZM69.4769 80.3759H119.477V-26.0855L37.5483 41.8979L69.4769 80.3759ZM75.573 119.754L106.808 158.797L107.303 158.401L107.788 157.992L75.573 119.754ZM99.6281 99.4881L70.2195 59.0513L68.7771 60.1003L67.4132 61.2494L99.6281 99.4881ZM75.2435 36.8792L107.286 -1.50451L25.2435 -69.9918V36.8792H75.2435ZM94.191 52.6962L126.035 91.2443L172.455 52.8976L126.233 14.3125L94.191 52.6962ZM75.2435 68.3484H25.2435V174.507L107.088 106.897L75.2435 68.3484ZM75.2435 112.504H25.2435V219.375L107.286 150.888L75.2435 112.504ZM75.2435 80.5407L107.674 42.4846L25.2435 -27.7605V80.5407H75.2435ZM94.191 96.6872L126.233 135.071L171.741 97.0812L126.621 58.6311L94.191 96.6872ZM132.151 55.769L109.25 36.3273L44.5326 112.562L67.4343 132.004L132.151 55.769ZM108.9 112.856L131.637 93.9082L67.6188 17.0861L44.8819 36.0335L108.9 112.856ZM131.29 94.195C157.553 72.7069 157.553 32.6854 131.29 11.1974L67.9662 88.5931C45.3277 70.0708 45.3277 35.3216 67.9662 16.7992L131.29 94.195ZM131.843 11.6565L107.788 -8.60904L43.3582 67.8685L67.4132 88.134L131.843 11.6565ZM106.808 -9.41371C72.1908 -37.1073 19.4769 -13.3822 19.4769 32.5954H119.477C119.477 71.9826 74.0125 92.4125 44.3383 68.6732L106.808 -9.41371ZM19.4769 32.5954V68.0189H119.477V32.5954H19.4769ZM101.646 29.7417L86.1586 16.7256L21.8203 93.2801L37.3078 106.296L101.646 29.7417ZM85.9181 16.5247C80.878 12.3426 73.4595 7.27095 63.8611 4.28766C58.8875 2.7418 30.622 -5.06706 9.11721 18.7753C-13.9981 44.4031 -0.444595 73.2572 2.27192 78.3751C7.1708 87.6046 13.8473 94.0208 18.7459 98.0197L81.9835 20.5535C82.8455 21.2572 86.9888 24.6871 90.6005 31.4916C92.0298 34.1844 105.542 61.1746 83.3742 85.7521C72.9674 97.2901 60.1811 100.817 51.9333 101.583C43.895 102.329 37.6188 100.85 34.1806 99.7815C27.2493 97.6271 23.229 94.4503 22.0608 93.4809L85.9181 16.5247ZM17.7957 97.2242L35.2603 112.217L100.398 36.3422L82.9337 21.349L17.7957 97.2242ZM35.8915 35.8093L18.4269 50.3082L82.3025 127.249L99.7671 112.75L35.8915 35.8093ZM18.6094 50.1574C13.5498 54.3176 6.93835 60.8639 2.17281 70.2314C-0.928936 76.3284 -12.0402 102.257 7.44061 126.721C27.2475 151.595 55.463 146.061 62.2482 144.224C72.4882 141.452 80.2797 136.248 85.3274 132.188L22.6515 54.2666C23.9097 53.2545 28.4266 49.7805 36.118 47.6984C40.3545 46.5515 66.7473 40.6671 85.6686 64.4287C104.264 87.7808 93.2041 111.836 91.302 115.574C87.7361 122.584 83.4725 126.288 82.12 127.4L18.6094 50.1574ZM85.9181 131.705L101.406 118.854L37.5483 41.8979L22.0608 54.7492L85.9181 131.705ZM19.4769 80.3759V116.953H119.477V80.3759H19.4769ZM19.4769 116.953C19.4769 164.896 73.8735 185.145 106.808 158.797L44.3383 80.7102C72.3298 58.3171 119.477 75.2703 119.477 116.953H19.4769ZM107.788 157.992L131.843 137.727L67.4132 61.2494L43.3582 81.5149L107.788 157.992ZM129.037 139.925C159.3 117.915 155.936 77.1472 133.241 56.7216L66.3446 131.051C46.9447 113.591 43.5808 78.425 70.2195 59.0513L129.037 139.925ZM43.2015 75.2629L62.1489 91.0799L126.233 14.3125L107.286 -1.50451L43.2015 75.2629ZM62.3469 14.1481L43.3995 29.8003L107.088 106.897L126.035 91.2443L62.3469 14.1481ZM125.244 68.3484V36.8792H25.2435V68.3484H125.244ZM125.244 112.504V80.5407H25.2435V112.504H125.244ZM42.8131 118.597L61.7605 134.743L126.621 58.6311L107.674 42.4846L42.8131 118.597ZM62.1489 58.3035L43.2015 74.1205L107.286 150.888L126.233 135.071L62.1489 58.3035Z" fill="#9F1012" mask="url(#path-2-inside-1_77_69)"/>
</svg>
