<svg width="150" height="150" viewBox="0 0 150 150" fill="none" xmlns="http://www.w3.org/2000/svg">
<circle cx="75" cy="75" r="72" stroke="#9F1012" stroke-width="6"/>
<path d="M88.7535 102.085L88.7533 102.086C86.789 111.53 78.4818 118.612 68.5382 118.612C60.4768 118.612 53.4565 113.941 50.0568 107.142L50.0502 107.129L50.0435 107.116C49.5734 106.209 50.1857 105.238 51.1637 105.238C51.6131 105.238 52.1148 105.526 52.3726 105.99C55.3445 111.818 61.3791 115.911 68.4555 115.911C77.1174 115.911 84.3611 109.769 86.1286 101.599C86.2569 101.031 86.7645 100.604 87.402 100.604H87.4847C88.3236 100.604 88.9005 101.379 88.7535 102.085Z" stroke="#9F1012" stroke-width="4"/>
<mask id="path-3-inside-1_77_68" fill="white">
<path fill-rule="evenodd" clip-rule="evenodd" d="M40.9871 71.6327H45.1239C45.5376 71.6327 45.8686 71.3018 45.8686 70.8881V59.3051C45.8686 58.1468 44.9585 57.2367 43.8002 57.2367H42.3937C41.2354 57.2367 40.3253 58.1468 40.3253 59.3051V70.9708C40.2425 71.3845 40.5735 71.6327 40.9871 71.6327Z"/>
</mask>
<path d="M40.3253 70.9708L46.2087 72.1475L46.3253 71.565V70.9708H40.3253ZM40.9871 77.6327H45.1239V65.6327H40.9871V77.6327ZM45.1239 77.6327C48.8513 77.6327 51.8686 74.6155 51.8686 70.8881H39.8686C39.8686 67.9881 42.2239 65.6327 45.1239 65.6327V77.6327ZM51.8686 70.8881V59.3051H39.8686V70.8881H51.8686ZM51.8686 59.3051C51.8686 54.8331 48.2722 51.2367 43.8002 51.2367V63.2367C41.6448 63.2367 39.8686 61.4605 39.8686 59.3051H51.8686ZM43.8002 51.2367H42.3937V63.2367H43.8002V51.2367ZM42.3937 51.2367C37.9216 51.2367 34.3253 54.8331 34.3253 59.3051H46.3253C46.3253 61.4605 44.5491 63.2367 42.3937 63.2367V51.2367ZM34.3253 59.3051V70.9708H46.3253V59.3051H34.3253ZM34.4418 69.7941C34.0039 71.9834 34.6885 74.2966 36.4157 75.8798C37.9136 77.2529 39.6859 77.6327 40.9871 77.6327V65.6327C41.8747 65.6327 43.2748 65.8885 44.5244 67.034C46.0034 68.3897 46.5639 70.3719 46.2087 72.1475L34.4418 69.7941Z" fill="#9F1012" mask="url(#path-3-inside-1_77_68)"/>
<mask id="path-5-inside-2_77_68" fill="white">
<path fill-rule="evenodd" clip-rule="evenodd" d="M53.9764 71.6327H58.1132C58.5269 71.6327 58.8578 71.3018 58.8578 70.8881V59.3051C58.8578 58.1468 57.9477 57.2367 56.7894 57.2367H55.3829C54.2246 57.2367 53.3145 58.1468 53.3145 59.3051V70.9708C53.2318 71.3845 53.5627 71.6327 53.9764 71.6327Z"/>
</mask>
<path d="M53.3145 70.9708L59.198 72.1475L59.3145 71.565V70.9708H53.3145ZM53.9764 77.6327H58.1132V65.6327H53.9764V77.6327ZM58.1132 77.6327C61.8406 77.6327 64.8578 74.6155 64.8578 70.8881H52.8578C52.8578 67.9881 55.2131 65.6327 58.1132 65.6327V77.6327ZM64.8578 70.8881V59.3051H52.8578V70.8881H64.8578ZM64.8578 59.3051C64.8578 54.8331 61.2614 51.2367 56.7894 51.2367V63.2367C54.634 63.2367 52.8578 61.4605 52.8578 59.3051H64.8578ZM56.7894 51.2367H55.3829V63.2367H56.7894V51.2367ZM55.3829 51.2367C50.9109 51.2367 47.3145 54.8331 47.3145 59.3051H59.3145C59.3145 61.4605 57.5383 63.2367 55.3829 63.2367V51.2367ZM47.3145 59.3051V70.9708H59.3145V59.3051H47.3145ZM47.431 69.7941C46.9932 71.9834 47.6778 74.2966 49.405 75.8798C50.9028 77.2529 52.6752 77.6327 53.9764 77.6327V65.6327C54.864 65.6327 56.264 65.8885 57.5136 67.034C58.9926 68.3897 59.5531 70.3719 59.198 72.1475L47.431 69.7941Z" fill="#9F1012" mask="url(#path-5-inside-2_77_68)"/>
<path fill-rule="evenodd" clip-rule="evenodd" d="M63.2429 73.701H35.9401C35.03 73.701 34.2854 74.4457 34.2854 75.3558V92.0684C34.2854 93.8058 34.6991 95.5433 35.6919 97.0325C37.3466 99.5973 40.1596 101.087 43.1381 101.087H55.7967C57.5342 101.087 59.2716 100.673 60.7608 99.6801C63.3257 98.0254 64.8149 95.2124 64.8149 92.2339V75.273C64.8149 74.4457 64.153 73.701 63.2429 73.701ZM46.5303 97.6944L49.757 90.2482C49.9225 89.8345 49.6743 89.3381 49.1778 89.3381H45.5375C45.0411 89.3381 44.7101 88.759 45.0411 88.3453L52.2391 77.176L49.757 85.3668C49.6743 85.7805 49.9225 86.1942 50.3361 86.1942H54.7211C55.2176 86.1942 55.5485 86.856 55.2176 87.2697L46.5303 97.6944Z" fill="#9F1012"/>
<path d="M87.7405 55.5069L89.1547 54.0927L87.7405 52.6785L83.3231 48.2611C82.7438 47.5764 82.8659 46.9783 83.2727 46.5714C83.7327 46.1114 84.452 46.1114 84.912 46.5714L89.3798 51.0392L90.794 52.4534L92.2082 51.0392L96.6759 46.5714C97.1359 46.1114 97.8552 46.1114 98.3152 46.5714C98.7752 47.0314 98.7752 47.7507 98.3152 48.2107L93.8475 52.6785L92.4333 54.0927L93.8475 55.5069L98.3152 59.9746C98.7752 60.4346 98.7752 61.1539 98.3152 61.6139C97.8552 62.0739 97.1359 62.0739 96.6759 61.6139L92.2082 57.1462L90.794 55.732L89.3798 57.1462L84.912 61.6139C84.452 62.0739 83.7327 62.0739 83.2727 61.6139C82.8127 61.1539 82.8127 60.4346 83.2727 59.9746L87.7405 55.5069Z" stroke="#9F1012" stroke-width="4"/>
<path d="M67.5596 54.0099C67.5596 41.2149 77.9989 30.7755 90.794 30.7755C103.589 30.7755 114.028 41.2149 114.028 54.0099C114.028 66.805 103.589 77.2443 90.794 77.2443C77.9989 77.2443 67.5596 66.805 67.5596 54.0099ZM69.8475 54.0927C69.8475 65.6219 79.2647 75.0392 90.794 75.0392C102.323 75.0392 111.74 65.6219 111.74 54.0927C111.74 42.5634 102.323 33.1462 90.794 33.1462C79.2647 33.1462 69.8475 42.5634 69.8475 54.0927Z" stroke="#9F1012" stroke-width="4"/>
</svg>
