<svg width="150" height="150" viewBox="0 0 150 150" fill="none" xmlns="http://www.w3.org/2000/svg">
<circle cx="75" cy="75" r="72" stroke="#9F1012" stroke-width="6"/>
<path d="M105.464 110.577C103.286 97.8958 94.1043 87.6149 82.0449 83.8941C89.3442 79.2375 94.1856 71.0604 94.1856 61.7462C94.1856 47.2573 82.4679 35.5 68.0005 35.5C53.5332 35.5 41.8154 47.2573 41.8154 61.7462C41.8154 71.0603 46.6574 79.2373 53.9563 83.8939C41.8968 87.6144 32.7148 97.8948 30.5361 110.577L30.0339 113.5H33H103H105.966L105.464 110.577Z" stroke="#9F1012" stroke-width="5"/>
<path d="M122.426 88.0383C121.046 88.0383 119.829 88.7436 119.058 89.872L106.683 82.7724C106.764 82.3963 106.805 82.0202 106.805 81.597C106.805 81.2209 106.764 80.7977 106.683 80.4216L119.018 73.322C119.829 74.4504 121.046 75.1557 122.385 75.1557C124.82 75.1557 126.768 72.8518 126.768 70.0778C126.768 67.2568 124.779 65 122.385 65C119.951 65 118.003 67.3038 118.003 70.0778C118.003 70.454 118.044 70.8771 118.125 71.2533L105.79 78.3528C104.979 77.2244 103.762 76.5192 102.423 76.5192C99.9882 76.5192 98 78.776 98 81.597C98 84.418 99.9882 86.6748 102.382 86.6748C103.762 86.6748 104.979 85.9696 105.75 84.8412L118.125 91.9407C118.044 92.3169 118.003 92.693 118.003 93.1162C118.003 95.9372 119.992 98.194 122.385 98.194C124.82 98.194 126.768 95.8902 126.768 93.1162C126.808 90.2951 124.82 88.0383 122.426 88.0383Z" fill="#9F1012"/>
</svg>
