<?xml version="1.0" encoding="utf-8"?>
<!-- Generator: Adobe Illustrator 27.5.0, SVG Export Plug-In . SVG Version: 6.00 Build 0)  -->
<svg version="1.1"
	 id="svg2347" xmlns:cc="http://web.resource.org/cc/" xmlns:dc="http://purl.org/dc/elements/1.1/" xmlns:sodipodi="http://sodipodi.sourceforge.net/DTD/sodipodi-0.dtd" xmlns:rdf="http://www.w3.org/1999/02/22-rdf-syntax-ns#" xmlns:svg="http://www.w3.org/2000/svg" xmlns:inkscape="http://www.inkscape.org/namespaces/inkscape" sodipodi:docbase="C:\Users\Chris\Desktop\SVGs"
	 xmlns="http://www.w3.org/2000/svg" xmlns:xlink="http://www.w3.org/1999/xlink" x="0px" y="0px" viewBox="0 0 424.6 108.9"
	 style="enable-background:new 0 0 424.6 108.9;" xml:space="preserve">
<style type="text/css">
	.st0{fill:#FFFFFF;}
</style>
<sodipodi:namedview  bordercolor="#666666" borderopacity="1.0" gridtolerance="10.0" guidetolerance="10.0" id="base" inkscape:current-layer="svg2347" inkscape:cx="217.5" inkscape:cy="85.088235" inkscape:pageopacity="0.0" inkscape:pageshadow="2" inkscape:window-height="575" inkscape:window-width="765" inkscape:window-x="179" inkscape:window-y="195" inkscape:zoom="1.5632184" objecttolerance="10.0" pagecolor="#ffffff">
	</sodipodi:namedview>
<path id="path2356" class="st0" d="M57.5,107.4c-1.9-1.4-1.8-1.7,1.9-16.4c2.1-8.3,4-17.6,4.3-20.8l0.5-5.8l-5,9.7
	c-8.9,17.2-15.4,25.6-23.9,30.5c-5.3,3.1-15.1,4.2-21.7,2.3C0.1,103.1-4.6,85.2,5.3,76c6-5.5,23.2-3.3,21.2,2.7
	c-0.6,2-1.2,2.2-5.1,1.6c-3.8-0.6-4.7-0.3-6.9,1.9c-2,2-2.6,3.6-2.6,7c0,3.7,0.5,4.9,3.1,7c5.3,4.5,13.5,3,20-3.6
	c4.5-4.6,12.3-18.9,22.3-41.1c10.4-23,16.6-35.5,22.1-43.9c4.9-7.6,5.7-8.3,9-7.4c3.7,0.9,3.9,4.3,0.7,11.6
	c-6.2,13.8-10.6,29.9-11.8,43l-0.7,7.5l9.8-14c12.4-17.8,19.6-26.7,30.8-38.2c7.2-7.4,9.6-9.2,11.8-9.2c3.6,0,4.7,2.5,2.6,5.9
	c-0.9,1.4-5.9,9.8-11.3,18.6C100.7,58,91.8,81.9,95,93.7c1.4,5.1,3.7,5.9,9.3,3.3c6.1-2.8,9.2-6,12.8-13.2
	c6.6-13.1,19.7-22.9,30.4-22.9c2.8,0,6,0.6,7.1,1.4c1.7,1.2,2.3,1.2,3.9,0c2.5-1.8,7-1.8,8.5,0.1c1,1.2,0.2,3.5-4.3,12.2
	c-3,5.9-6.6,12.7-7.8,15c-1.3,2.3-2,4.5-1.6,4.9c2.3,2.3,12.6-8.7,23.2-24.6c3.6-5.5,3.7-5.6,2.2-9.2c-2-4.7-2-14,0-17.7
	c1.6-3.2,6.1-6,9.5-6c1.2,0,3.4,1.3,5,2.9c2.4,2.4,2.9,3.8,2.9,7.5c0,2.6-0.9,6.3-2,8.5c-2.6,5.2-2.6,5.4,1.4,4.7
	c4.1-0.7,7.6,1.5,7.6,4.6c0,1.2-3.2,6.2-7.1,11.2c-13.2,16.8-15.4,25.2-5.3,21c6.5-2.7,9.9-6,25.4-25c11.3-13.9,15.7-18.5,17.3-18.5
	c2.6,0,6.7,2.6,6.7,4.2c0,0.6-1.9,3.6-4.2,6.6l-4.2,5.5l1.3,4.6c0.7,2.5,1.5,6.5,1.8,8.8s0.7,4.2,0.9,4.2s3.1-1.8,6.2-4
	c4.6-3.2,6.3-5.2,8.3-9.8c11.2-24.9,20.1-44.1,21.3-46c1.7-2.7,7.4-3.1,9.4-0.7c1.3,1.6,1.3,1.7-9.4,26.8l-4.6,10.8l4.3-2.5
	c4.7-2.8,8.4-3.2,10.8-1.3c2.3,1.8,3.8,7.4,3.1,11c-0.6,3.3-5.4,13.2-9.8,20.5c-1.6,2.5-2.1,4.2-1.4,4.2c2.7,0,9.8-7.2,12.4-12.6
	c3.5-7.2,14.3-18.2,21-21.5c6.3-3.1,14.3-3.3,17.4-0.5c1.8,1.6,2.2,1.7,2.7,0.3c1.3-3.3,10.4-2.8,10.4,0.6c0,0.8-3.1,7.5-7,14.9
	c-3.8,7.4-7,14.5-7,15.7c0,3.8,2.7,3.5,8-0.9c4.1-3.4,6-6.2,9.9-14.4c9.7-20.2,24.5-38.9,38-47.9c7.9-5.3,15-4.7,15,1.2
	c0,3.1-6.5,17.1-10.9,23.5c-4.5,6.6-14.7,16.1-24.2,22.6c-10.4,7.1-10.8,7.6-11.5,13.1c-0.7,5.4,1.8,8.6,6.1,7.5
	c4.5-1.1,13.6-11.6,19.5-22.2c7.7-14,11.5-19.9,17.9-27.8c6.7-8.2,20.9-20.2,25.1-21.1c4.1-0.9,6.9,0.2,7.6,2.8
	c0.7,2.8-3.3,13.8-7.7,21.4c-4.2,7.1-17.9,20.9-28.2,28.3c-8.1,5.8-9.7,8.7-8.3,14.5c1.9,7.4,10.4,4.3,19.7-7.1
	c5.4-6.7,6.3-7.3,7.6-6c2.2,2.2,1,5.1-4.9,13c-5.6,7.4-13.3,13.2-19,14.2c-6.3,1.1-13-3.3-15.2-10c-0.2-0.5-1.9,0.5-3.8,2.3
	c-4.7,4.5-12.6,8.2-17.2,8.2c-3,0-4.6-0.7-6.8-2.9c-1.6-1.6-2.9-3.9-2.9-5c0-1.1-0.2-2.1-0.5-2.1c-0.3,0-2.9,1.8-5.8,3.9
	c-8.8,6.6-13.4,7.2-17.6,2l-1.7-2.1l-3.5,2c-1.9,1.1-5.6,2.5-8.2,3.1c-5.5,1.2-9.7-0.1-13.6-4.3l-2.4-2.6l-4,2.9
	c-6.1,4.4-10.1,5.4-13.7,3.5c-3.8-1.9-6.1-5.3-6.1-8.5c0-1.4,2.7-7.7,6-14c3.3-6.3,6-11.8,6-12.2c0-1.9-2.9-0.5-7.9,4
	c-4.7,4.2-6.2,6.5-11.1,17.2c-6.4,14.2-8.9,16.7-13.8,13.9c-2.9-1.6-3.5-5.2-1.8-9.3c0.5-1.2-1.7-0.1-6.4,3.2
	c-12,8.4-21.6,9.1-28.2,2l-2.7-2.9l-5.3,3.2c-3.8,2.3-7,3.3-11,3.6c-5.3,0.4-5.9,0.2-8.8-2.6c-2.2-2.2-3-4-3-6.5
	c0-4.8,5.9-16.1,12-22.9c3.2-3.6,4.7-5.9,4-6.4c-1.3-0.8-0.9-1.4-10.4,11.9c-10.5,14.6-16.6,21-22.7,24.1
	c-6.2,3.1-10.4,3.3-13.3,0.5l-2.2-2.1l-4.1,2.1c-5.3,2.7-12.6,2.7-16.9,0.1c-1.8-1.1-3.5-2.7-3.8-3.5c-0.5-1.2-1.4-0.9-4.8,1.4
	c-7.1,4.9-15.8,6.1-21.8,2.9c-4.6-2.4-6.4-12.7-4.5-26.8l0.7-5.5l-3.1,5.5c-8.7,15.3-19,29-21.8,29
	C59.7,108.9,58.5,108.2,57.5,107.4z M220.5,98.4c2-2,2.5-3.5,2.4-7.7c0-6.1-0.9-10-2.1-9.6c-1.8,0.6-9.9,11.3-9.9,13.1
	c0,2,4.2,6.7,6,6.7C217.6,100.9,219.2,99.8,220.5,98.4z M308.7,93.4c8.3-7.1,14.2-24.5,8.6-25.3c-7.4-1.1-21.4,14.8-21.6,24.6
	C295.5,99.7,301,100,308.7,93.4z M136.2,95c6.8-4.3,12.4-13.2,13.5-21.6c0.7-5-0.6-6.3-5-5.2c-9.2,2.3-22.9,23-18.7,28.1
	C127.9,98.6,131.1,98.2,136.2,95z M367.8,61.1c7.1-7,17.6-22.2,15.3-22.2c-0.5,0-4.4,3.8-8.7,8.3c-7.6,8-17.2,21.7-15.3,21.7
	C359.5,68.9,363.4,65.4,367.8,61.1z M400.5,59.4c4.9-4.5,14.8-20.5,12.7-20.5c-2.9,0-23.2,25.7-23.2,29.3c0,0.6,2.1-0.9,4.7-3.4
	C397.3,62.4,399.9,59.9,400.5,59.4z M187.9,51.8c1-2.8,0.1-6.9-1.4-6.9c-1.3,0-2.5,4.5-2,7.1C185.3,55.7,186.5,55.6,187.9,51.8z"/>
</svg>
