<svg width="150" height="150" viewBox="0 0 150 150" fill="none" xmlns="http://www.w3.org/2000/svg">
<circle cx="75" cy="75" r="72" stroke="#9F1012" stroke-width="6"/>
<path d="M74.7216 32.0176C74.8766 31.8626 75.0868 31.7755 75.3061 31.7755C83.7945 31.7755 92.0923 34.2926 99.1502 39.0086C106.208 43.7245 111.709 50.4274 114.957 58.2697C118.206 66.112 119.056 74.7415 117.4 83.0668C115.744 91.3922 111.656 99.0395 105.654 105.042C99.6517 111.044 92.0044 115.132 83.679 116.788C75.3537 118.444 66.7242 117.594 58.8819 114.345C51.0396 111.097 44.3367 105.596 39.6207 98.538C34.9048 91.4802 32.3877 83.1823 32.3877 74.6939C32.3877 74.4747 32.4748 74.2644 32.6298 74.1094C32.7848 73.9544 32.995 73.8673 33.2142 73.8673C33.4334 73.8673 33.6437 73.9544 33.7987 74.1094C33.9537 74.2644 34.0408 74.4747 34.0408 74.6939C34.0408 82.8554 36.4609 90.8336 40.9952 97.6196C45.5295 104.406 51.9743 109.695 59.5145 112.818C67.0548 115.941 75.3518 116.759 83.3565 115.166C91.3612 113.574 98.714 109.644 104.485 103.873C110.256 98.1018 114.186 90.749 115.778 82.7443C117.371 74.7397 116.554 66.4426 113.43 58.9023C110.307 51.3621 105.018 44.9173 98.2318 40.383C91.4458 35.8487 83.4676 33.4286 75.3061 33.4286C75.0868 33.4286 74.8766 33.3415 74.7216 33.1865C74.5666 33.0315 74.4795 32.8213 74.4795 32.602C74.4795 32.3828 74.5666 32.1726 74.7216 32.0176Z" stroke="#9F1012" stroke-width="6"/>
<path d="M75.3064 75.5204H75.3056H48.5199C48.3007 75.5204 48.0904 75.4333 47.9354 75.2783C47.7804 75.1233 47.6934 74.9131 47.6934 74.6938C47.6934 74.4746 47.7804 74.2644 47.9354 74.1094C48.0904 73.9544 48.3007 73.8673 48.5199 73.8673H71.4791H74.4791V70.8673V47.9081C74.4791 47.6889 74.5661 47.4787 74.7211 47.3237C74.8762 47.1687 75.0864 47.0816 75.3056 47.0816C75.5248 47.0816 75.735 47.1687 75.89 47.3237C76.045 47.4787 76.1321 47.6889 76.1321 47.9081V74.6938V74.6946C76.1322 74.8031 76.1108 74.9105 76.0693 75.0106L76.0693 75.0107C76.0278 75.1109 75.967 75.2019 75.8903 75.2786L75.8903 75.2786C75.8137 75.3552 75.7226 75.4161 75.6224 75.4576L75.6224 75.4576C75.5222 75.4991 75.4148 75.5204 75.3064 75.5204Z" stroke="#9F1012" stroke-width="6"/>
</svg>
